<svg viewBox="0 0 24 24" width="20" height="20" fill="currentColor" aria-hidden="true">
    <rect x="1" y="1" width="3.3" height="3.3" rx="0.5" />
    <rect x="5.65" y="1" width="3.3" height="3.3" rx="0.5" />
    <rect x="10.3" y="1" width="3.3" height="3.3" rx="0.5" />
    <rect x="14.95" y="1" width="3.3" height="3.3" rx="0.5" />
    <rect x="19.6" y="1" width="3.3" height="3.3" rx="0.5" />

    <rect x="1" y="5.65" width="3.3" height="3.3" rx="0.5" />
    <rect x="5.65" y="5.65" width="3.3" height="3.3" rx="0.5" />
    <rect x="10.3" y="5.65" width="3.3" height="3.3" rx="0.5" />
    <rect x="14.95" y="5.65" width="3.3" height="3.3" rx="0.5" />
    <rect x="19.6" y="5.65" width="3.3" height="3.3" rx="0.5" />

    <rect x="1" y="10.3" width="3.3" height="3.3" rx="0.5" />
    <rect x="5.65" y="10.3" width="3.3" height="3.3" rx="0.5" />
    <rect x="10.3" y="10.3" width="3.3" height="3.3" rx="0.5" />
    <rect x="14.95" y="10.3" width="3.3" height="3.3" rx="0.5" />
    <rect x="19.6" y="10.3" width="3.3" height="3.3" rx="0.5" />

    <rect x="1" y="14.95" width="3.3" height="3.3" rx="0.5" />
    <rect x="5.65" y="14.95" width="3.3" height="3.3" rx="0.5" />
    <rect x="10.3" y="14.95" width="3.3" height="3.3" rx="0.5" />
    <rect x="14.95" y="14.95" width="3.3" height="3.3" rx="0.5" />
    <rect x="19.6" y="14.95" width="3.3" height="3.3" rx="0.5" />

    <rect x="1" y="19.6" width="3.3" height="3.3" rx="0.5" />
    <rect x="5.65" y="19.6" width="3.3" height="3.3" rx="0.5" />
    <rect x="10.3" y="19.6" width="3.3" height="3.3" rx="0.5" />
    <rect x="14.95" y="19.6" width="3.3" height="3.3" rx="0.5" />
    <rect x="19.6" y="19.6" width="3.3" height="3.3" rx="0.5" />
</svg>
